<svg id="wave" style="transform:rotate(0deg); transition: 0.3s" viewBox="0 0 4440 390" version="1.1" xmlns="http://www.w3.org/2000/svg"><defs><linearGradient id="sw-gradient-0" x1="0" x2="0" y1="1" y2="0"><stop stop-color="rgba(241, 226, 245, 1)" offset="0%"></stop><stop stop-color="rgba(243, 247, 255, 1)" offset="100%"></stop></linearGradient></defs><path style="transform:translate(0, 0px); opacity:1" fill="url(#sw-gradient-0)" d="M0,312L60,286C120,260,240,208,360,156C480,104,600,52,720,84.5C840,117,960,234,1080,247C1200,260,1320,169,1440,123.5C1560,78,1680,78,1800,65C1920,52,2040,26,2160,52C2280,78,2400,156,2520,162.5C2640,169,2760,104,2880,91C3000,78,3120,117,3240,162.5C3360,208,3480,260,3600,273C3720,286,3840,260,3960,234C4080,208,4200,182,4320,143C4440,104,4560,52,4680,78C4800,104,4920,208,5040,253.5C5160,299,5280,286,5400,234C5520,182,5640,91,5760,84.5C5880,78,6000,156,6120,188.5C6240,221,6360,208,6480,214.5C6600,221,6720,247,6840,214.5C6960,182,7080,91,7200,97.5C7320,104,7440,208,7560,240.5C7680,273,7800,234,7920,195C8040,156,8160,117,8280,84.5C8400,52,8520,26,8580,13L8640,0L8640,390L8580,390C8520,390,8400,390,8280,390C8160,390,8040,390,7920,390C7800,390,7680,390,7560,390C7440,390,7320,390,7200,390C7080,390,6960,390,6840,390C6720,390,6600,390,6480,390C6360,390,6240,390,6120,390C6000,390,5880,390,5760,390C5640,390,5520,390,5400,390C5280,390,5160,390,5040,390C4920,390,4800,390,4680,390C4560,390,4440,390,4320,390C4200,390,4080,390,3960,390C3840,390,3720,390,3600,390C3480,390,3360,390,3240,390C3120,390,3000,390,2880,390C2760,390,2640,390,2520,390C2400,390,2280,390,2160,390C2040,390,1920,390,1800,390C1680,390,1560,390,1440,390C1320,390,1200,390,1080,390C960,390,840,390,720,390C600,390,480,390,360,390C240,390,120,390,60,390L0,390Z"></path></svg>